<svg width="24" height="24" viewBox="0 0 24 24" fill="none" xmlns="http://www.w3.org/2000/svg">
<path d="M2.5 8.4V8.39991C2.49977 7.08447 3.02846 5.82419 3.96711 4.90261C4.90576 3.98103 6.17553 3.47555 7.49074 3.49991L7.49074 3.50005L7.50266 3.49999C9.07665 3.49163 10.5786 4.15914 11.6271 5.33307L12 5.75058L12.3729 5.33307C13.4214 4.15914 14.9233 3.49163 16.4973 3.49999L16.4973 3.50013L16.5093 3.49991C17.8245 3.47555 19.0942 3.98103 20.0329 4.90261C20.9715 5.82419 21.5002 7.08447 21.5 8.39991V8.4C21.5 10.8747 20.0242 13.1023 18.0015 15.1578C16.9966 16.179 15.876 17.1385 14.7721 18.0486C14.456 18.3092 14.1401 18.5667 13.8286 18.8205C13.1885 19.3422 12.5671 19.8486 12.0016 20.3353C11.411 19.8222 10.7593 19.2894 10.0885 18.741C9.80525 18.5093 9.51854 18.2749 9.23158 18.038C8.12755 17.1266 7.00664 16.1682 6.00109 15.1487C3.9772 13.0969 2.5 10.8762 2.5 8.4Z" stroke="#3A89FF"/>
</svg>
